<svg xmlns="http://www.w3.org/2000/svg" viewBox="0 0 100 100">
  <defs>
    <linearGradient id="grad" x1="0%" y1="0%" x2="100%" y2="100%">
      <stop offset="0%" style="stop-color:#f87171;stop-opacity:1" />
      <stop offset="100%" style="stop-color:#dc2626;stop-opacity:1" />
    </linearGradient>
  </defs>
  <path d="M85.9,14.1C76.4,4.5,63.6,0,50,0C22.4,0,0,22.4,0,50c0,13.6,5.5,25.9,14.1,34.5c-0.6,3.9-2.2,11-12.7,14.4c-0.5,0.2-0.8,0.7-0.7,1.2C1,100,1.4,100,1.5,100c11.3,0,19.9-5.1,23.3-8.8c5.1,1.8,10.6,2.8,16.4,2.8c8.8,0,17.2-2.2,24.5-6.2l17.7,12.2c0.4,0.3,1,0.2,1.3-0.2c0.3-0.4,0.2-1-0.2-1.3L66.7,80.7c6.6-8,10.4-18.1,10.4-29.2c0-7.2-1.8-14.1-5-20.2C78.4,26,83.5,19.9,85.9,14.1z" fill="url(#grad)"/>
  <g transform="translate(50,50) scale(0.4)">
    <path d="M48.2,0L35.8,25.2L9.2,29.3c-5.2,0.8-7.3,7.1-3.5,10.6l19.3,17.6l-5.7,26.4c-1.2,5.2,4.5,9.2,9,6.7l22.6-12.9l22.6,12.9c4.5,2.5,10.2-1.5,9-6.7l-5.7-26.4l19.3-17.6c3.8-3.5,1.7-9.8-3.5-10.6L63,29.3L50.6,0C49.8-1.7,47.4-1.7,48.2,0z" fill="white"/>
  </g>
</svg>